TITLE ""
FILE "Step2_Track03.mp3" MP3
  TRACK 01 AUDIO
    TITLE "Step2_Track03_01"
    INDEX 01 00:00:00
  TRACK 02 AUDIO
    TITLE "Step2_Track03_02"
    INDEX 01 00:00:22
  TRACK 03 AUDIO
    TITLE "Step2_Track03_03"
    INDEX 01 00:01:59
  TRACK 04 AUDIO
    TITLE "Step2_Track03_04"
    INDEX 01 00:02:46
  TRACK 05 AUDIO
    TITLE "Step2_Track03_05"
    INDEX 01 00:03:40
  TRACK 06 AUDIO
    TITLE "Step2_Track03_06"
    INDEX 01 00:03:50
  TRACK 07 AUDIO
    TITLE "Step2_Track03_07"
    INDEX 01 00:05:43
  TRACK 08 AUDIO
    TITLE "Step2_Track03_08"
    INDEX 01 00:05:68
  TRACK 09 AUDIO
    TITLE "Step2_Track03_09"
    INDEX 01 00:06:74
  TRACK 10 AUDIO
    TITLE "Step2_Track03_10"
    INDEX 01 00:07:03
  TRACK 11 AUDIO
    TITLE "Step2_Track03_11"
    INDEX 01 00:09:01
  TRACK 12 AUDIO
    TITLE "Step2_Track03_12"
    INDEX 01 00:09:39
  TRACK 13 AUDIO
    TITLE "Step2_Track03_13"
    INDEX 01 00:10:46
  TRACK 14 AUDIO
    TITLE "Step2_Track03_14"
    INDEX 01 00:10:52
  TRACK 15 AUDIO
    TITLE "Step2_Track03_15"
    INDEX 01 00:12:45
  TRACK 16 AUDIO
    TITLE "Step2_Track03_16"
    INDEX 01 00:12:74
  TRACK 17 AUDIO
    TITLE "Step2_Track03_17"
    INDEX 01 00:14:03
  TRACK 18 AUDIO
    TITLE "Step2_Track03_18"
    INDEX 01 00:14:26
  TRACK 19 AUDIO
    TITLE "Step2_Track03_19"
    INDEX 01 00:15:71
  TRACK 20 AUDIO
    TITLE "Step2_Track03_20"
    INDEX 01 00:16:45
  TRACK 21 AUDIO
    TITLE "Step2_Track03_21"
    INDEX 01 00:17:46
  TRACK 22 AUDIO
    TITLE "Step2_Track03_22"
    INDEX 01 00:17:70
  TRACK 23 AUDIO
    TITLE "Step2_Track03_23"
    INDEX 01 00:19:64
  TRACK 24 AUDIO
    TITLE "Step2_Track03_24"
    INDEX 01 00:20:15
  TRACK 25 AUDIO
    TITLE "Step2_Track03_25"
    INDEX 01 00:21:26
  TRACK 26 AUDIO
    TITLE "Step2_Track03_26"
    INDEX 01 00:21:44
  TRACK 27 AUDIO
    TITLE "Step2_Track03_27"
    INDEX 01 00:22:73
  TRACK 28 AUDIO
    TITLE "Step2_Track03_28"
    INDEX 01 00:23:49
  TRACK 29 AUDIO
    TITLE "Step2_Track03_29"
    INDEX 01 00:24:56
  TRACK 30 AUDIO
    TITLE "Step2_Track03_30"
    INDEX 01 00:24:72
  TRACK 31 AUDIO
    TITLE "Step2_Track03_31"
    INDEX 01 00:27:13
  TRACK 32 AUDIO
    TITLE "Step2_Track03_32"
    INDEX 01 00:27:44
  TRACK 33 AUDIO
    TITLE "Step2_Track03_33"
    INDEX 01 00:28:36
  TRACK 34 AUDIO
    TITLE "Step2_Track03_34"
    INDEX 01 00:28:63
  TRACK 35 AUDIO
    TITLE "Step2_Track03_35"
    INDEX 01 00:31:11
  TRACK 36 AUDIO
    TITLE "Step2_Track03_36"
    INDEX 01 00:31:50
  TRACK 37 AUDIO
    TITLE "Step2_Track03_37"
    INDEX 01 00:32:55
  TRACK 38 AUDIO
    TITLE "Step2_Track03_38"
    INDEX 01 00:33:12
  TRACK 39 AUDIO
    TITLE "Step2_Track03_39"
    INDEX 01 00:35:65
  TRACK 40 AUDIO
    TITLE "Step2_Track03_40"
    INDEX 01 00:36:20
  TRACK 41 AUDIO
    TITLE "Step2_Track03_41"
    INDEX 01 00:37:17
  TRACK 42 AUDIO
    TITLE "Step2_Track03_42"
    INDEX 01 00:37:41
  TRACK 43 AUDIO
    TITLE "Step2_Track03_43"
    INDEX 01 00:40:14
